<svg xmlns="http://www.w3.org/2000/svg" width="782" height="639" fill="none"><path fill="url(#a)" d="M213.805 253c22.091 0 40 17.909 40 40v47.805c0 2.669-.264 5.276-.763 7.799-17.184.399-31.039 14.254-31.438 31.438-2.523.499-5.13.763-7.799.763H166c-22.091 0-40-17.909-40-40V293c0-22.091 17.909-40 40-40z"/><path fill="#fff" d="M209.801 347.155c-20.817 12.98-43.892 2.695-51.686-12.907 3.518 1.125 6.912 2.44 10.423 3.27 3.58.845 7.273 1.21 10.97 1.792 1.522 3.708 2.247 4.188 6.464 4.181 1.519 0 3.037.051 4.552-.022 3.231-.156 4.647-2.068 4.596-6.085-.04-3.18-1.679-4.917-4.738-4.971-1.759-.033-3.521-.008-5.28 0-3.256.007-4.302.702-5.522 3.722-8.063-.459-15.769-2.273-22.845-6.337-.605-.346-1.158-1.075-1.388-1.745-5.677-16.392 2.429-36.036 18.137-43.44 13.803-6.505 27.114-5.328 39.052 4.257 10.554 8.471 14.608 19.892 12.925 33.316-.725 5.769-2.957 10.944-6.238 15.719-.346.502-.434 1.383-.277 1.995 1.103 4.261 3.059 8.023 6.653 10.762.226.175.419.393.671.63-4.502 1.588-11.265-.142-16.469-4.133z"/><path fill="#fff" d="M182.306 337.895a2.73 2.73 0 0 1 2.732-2.732h5.28c1.207 0 2.185.978 2.185 2.185a3.28 3.28 0 0 1-3.277 3.278h-4.188a2.73 2.73 0 0 1-2.732-2.731"/><path fill="url(#b)" d="M244.024 384.448a2.245 2.245 0 1 1-4.259-1.426l5.322-15.437a4.032 4.032 0 0 1 7.622.001l5.314 15.437a2.246 2.246 0 1 1-4.26 1.424l-4.757-14.672a.114.114 0 0 0-.216 0zm-.803-5.011c0-.963.78-1.744 1.743-1.744h7.806a1.744 1.744 0 0 1 0 3.488h-7.806a1.743 1.743 0 0 1-1.743-1.744"/><path fill="url(#c)" d="M262.335 386a2.195 2.195 0 0 1-2.195-2.195v-11.46a2.194 2.194 0 1 1 4.389 0v11.46a2.194 2.194 0 0 1-2.194 2.195m.01-17.893a2.38 2.38 0 0 1-1.68-.65q-.69-.66-.69-1.578 0-.909.69-1.558a2.36 2.36 0 0 1 1.68-.661q.978 0 1.669.661.7.65.701 1.558 0 .918-.701 1.578-.69.65-1.669.65"/><path fill="#000" d="M331.025 365.7q-14.04 0-24.24-5.4-10.08-5.52-15.36-15.24-5.28-9.84-5.28-22.56t5.28-22.44q5.28-9.84 15.36-15.24 10.2-5.52 24.24-5.52t24.12 5.52q10.2 5.4 15.48 15.24 5.28 9.72 5.28 22.44t-5.28 22.56q-5.28 9.72-15.48 15.24-10.08 5.4-24.12 5.4m0-12.6q13.68 0 21.24-8.16 7.56-8.28 7.56-22.44 0-14.28-7.92-22.44-7.8-8.16-22.08-8.16-13.08 0-20.4 8.4-7.2 8.28-7.2 22.2 0 14.16 7.56 22.44 7.56 8.16 21.24 8.16m58.901 12.6q-3.72 0-5.76-1.92t-2.04-5.28v-46.8q0-3.48 1.92-5.28 2.04-1.92 5.64-1.92t5.64 1.92 2.04 5.28v3.48q8.52-10.68 23.28-10.68 11.52 0 18.12 7.32 6.72 7.2 6.72 19.68v27q0 3.36-2.16 5.28t-5.76 1.92q-3.72 0-5.76-1.92t-2.04-5.28v-27q0-6.84-3.36-10.68t-9.36-3.84q-9.12 0-14.16 5.4-5.04 5.28-5.04 14.88v21.24q0 3.36-2.16 5.28t-5.76 1.92m81.628-1.2q-9.12 0-14.16-4.8t-5.04-13.44v-48q0-8.4 4.8-13.08 4.92-4.68 13.56-4.68h16.8q13.8 0 23.88 5.04t15.36 14.52q5.4 9.48 5.4 22.56t-5.4 22.56q-5.28 9.36-15.36 14.4-9.96 4.92-23.88 4.92zm14.76-12.36q15 0 22.32-7.2 7.32-7.32 7.32-22.32t-7.44-22.32q-7.32-7.44-22.2-7.44h-12.84q-2.4 0-3.84 1.56-1.32 1.56-1.32 4.32v47.52q0 2.76 1.32 4.32 1.44 1.56 3.84 1.56zm61.873-55.08q-4.44 0-7.2-2.4-2.64-2.52-2.64-6.48t2.64-6.36q2.76-2.52 7.2-2.52t7.2 2.52q2.88 2.4 2.88 6.36t-2.88 6.48q-2.76 2.4-7.2 2.4m.12 68.64q-3.72 0-5.76-1.92t-2.04-5.28v-46.8q0-3.36 2.04-5.28t5.76-1.92q3.6 0 5.76 1.92t2.16 5.28v46.8q0 3.36-2.16 5.28t-5.76 1.92m40.177 0q-7.44 0-13.2-2.52-5.64-2.52-8.88-6.96-3.12-4.56-3.12-10.44 0-8.88 7.32-14.16 7.44-5.28 20.04-5.28 10.92 0 17.52 4.68v-2.88q0-5.64-3.48-8.64t-10.08-3q-9.84 0-16.92 4.2-3 1.68-5.16 1.68-2.64 0-4.68-2.4-1.32-1.68-1.32-3.48 0-3 3.12-5.28 4.32-3.12 10.92-4.92t13.92-1.8q13.92 0 21.84 6.36 8.04 6.24 8.04 17.28v30.84q0 3.12-2.16 4.92-2.04 1.8-5.64 1.8-3.72 0-5.76-1.68t-2.04-4.8v-1.32q-6.84 7.8-20.28 7.8m3.72-11.04q7.56 0 11.76-2.28 4.32-2.4 4.32-6.6 0-3.96-4.32-6.36t-11.52-2.4q-6.48 0-10.08 2.28-3.48 2.28-3.48 6.48t3.48 6.6q3.48 2.28 9.84 2.28m47.993 11.04q-3.72 0-5.76-1.92t-2.04-5.28v-77.88q0-3.36 2.04-5.28t5.76-1.92q3.6 0 5.76 1.92t2.16 5.28v77.88q0 3.36-2.16 5.28t-5.76 1.92"/><defs><linearGradient id="a" x1="126.187" x2="253.991" y1="380.805" y2="253.374" gradientUnits="userSpaceOnUse"><stop stop-color="#4800ff"/><stop offset="1" stop-color="#703bf7"/></linearGradient><linearGradient id="b" x1="238.044" x2="272.143" y1="392.538" y2="364.951" gradientUnits="userSpaceOnUse"><stop stop-color="#4800ff"/><stop offset="1" stop-color="#703bf7"/></linearGradient><linearGradient id="c" x1="238.044" x2="272.143" y1="392.538" y2="364.951" gradientUnits="userSpaceOnUse"><stop stop-color="#4800ff"/><stop offset="1" stop-color="#703bf7"/></linearGradient></defs></svg>