<svg xmlns="http://www.w3.org/2000/svg" width="363" height="94" fill="none"><path fill="#000" d="M45.025 93.2q-14.04 0-24.24-5.4-10.08-5.52-15.36-15.24Q.145 62.72.145 50t5.28-22.44q5.28-9.84 15.36-15.24 10.2-5.52 24.24-5.52t24.12 5.52q10.2 5.4 15.48 15.24 5.28 9.72 5.28 22.44t-5.28 22.56q-5.28 9.72-15.48 15.24-10.08 5.4-24.12 5.4m0-12.6q13.68 0 21.24-8.16 7.56-8.28 7.56-22.44 0-14.28-7.92-22.44-7.8-8.16-22.08-8.16-13.08 0-20.4 8.4-7.2 8.28-7.2 22.2 0 14.16 7.56 22.44 7.56 8.16 21.24 8.16m58.901 12.6q-3.72 0-5.76-1.92T96.126 86V39.2q0-3.48 1.92-5.28 2.04-1.92 5.64-1.92t5.64 1.92 2.04 5.28v3.48Q119.886 32 134.646 32q11.52 0 18.12 7.32 6.72 7.2 6.72 19.68v27q0 3.36-2.16 5.28t-5.76 1.92q-3.72 0-5.76-1.92t-2.04-5.28V59q0-6.84-3.36-10.68t-9.36-3.84q-9.12 0-14.16 5.4-5.04 5.28-5.04 14.88V86q0 3.36-2.16 5.28t-5.76 1.92m81.628-1.2q-9.12 0-14.16-4.8t-5.04-13.44v-48q0-8.4 4.8-13.08Q176.074 8 184.714 8h16.8q13.8 0 23.88 5.04t15.36 14.52q5.4 9.48 5.4 22.56t-5.4 22.56q-5.28 9.36-15.36 14.4-9.96 4.92-23.88 4.92zm14.76-12.36q15 0 22.32-7.2 7.32-7.32 7.32-22.32t-7.44-22.32q-7.32-7.44-22.2-7.44h-12.84q-2.4 0-3.84 1.56-1.32 1.56-1.32 4.32v47.52q0 2.76 1.32 4.32 1.44 1.56 3.84 1.56zm61.873-55.08q-4.44 0-7.2-2.4-2.64-2.52-2.64-6.48t2.64-6.36q2.76-2.52 7.2-2.52t7.2 2.52q2.88 2.4 2.88 6.36t-2.88 6.48q-2.76 2.4-7.2 2.4m.12 68.64q-3.72 0-5.76-1.92t-2.04-5.28V39.2q0-3.36 2.04-5.28t5.76-1.92q3.6 0 5.76 1.92t2.16 5.28V86q0 3.36-2.16 5.28t-5.76 1.92m40.177 0q-7.44 0-13.2-2.52-5.64-2.52-8.88-6.96-3.12-4.56-3.12-10.44 0-8.88 7.32-14.16 7.44-5.28 20.04-5.28 10.92 0 17.52 4.68v-2.88q0-5.64-3.48-8.64t-10.08-3q-9.84 0-16.92 4.2-3 1.68-5.16 1.68-2.64 0-4.68-2.4-1.32-1.68-1.32-3.48 0-3 3.12-5.28 4.32-3.12 10.92-4.92t13.92-1.8q13.92 0 21.84 6.36 8.04 6.24 8.04 17.28v30.84q0 3.12-2.16 4.92-2.04 1.8-5.64 1.8-3.72 0-5.76-1.68t-2.04-4.8V85.4q-6.84 7.8-20.28 7.8m3.72-11.04q7.56 0 11.76-2.28 4.32-2.4 4.32-6.6 0-3.96-4.32-6.36t-11.52-2.4q-6.48 0-10.08 2.28-3.48 2.28-3.48 6.48t3.48 6.6q3.48 2.28 9.84 2.28m47.993 11.04q-3.72 0-5.76-1.92t-2.04-5.28V8.12q0-3.36 2.04-5.28t5.76-1.92q3.6 0 5.76 1.92t2.16 5.28V86q0 3.36-2.16 5.28t-5.76 1.92"/></svg>